<svg width="45" height="45" viewBox="0 0 45 45" fill="none" xmlns="http://www.w3.org/2000/svg">
<rect width="45" height="45" rx="22.5" fill="#F2F2F3"/>
<path d="M16.1667 13H18.5417C20.2905 13 21.7083 14.4178 21.7083 16.1667V18.5417C21.7083 20.2905 20.2905 21.7083 18.5417 21.7083H16.1667C14.4178 21.7083 13 20.2906 13 18.5417V16.1667C13 14.4178 14.4178 13 16.1667 13Z" fill="#6760D7"/>
<path d="M26.4577 13H28.8327C30.5816 13 31.9993 14.4178 31.9993 16.1667V18.5417C31.9993 20.2905 30.5816 21.7083 28.8327 21.7083H26.4577C24.7088 21.7083 23.291 20.2905 23.291 18.5417V16.1667C23.291 14.4178 24.7087 13 26.4577 13Z" fill="#6760D7"/>
<path d="M16.1667 23.292H18.5417C20.2905 23.292 21.7083 24.7098 21.7083 26.4586V28.8336C21.7083 30.5825 20.2905 32.0003 18.5417 32.0003H16.1667C14.4178 32.0003 13 30.5826 13 28.8337V26.4587C13 24.7098 14.4178 23.292 16.1667 23.292Z" fill="#6760D7"/>
<path d="M26.4577 23.292H28.8327C30.5816 23.292 31.9993 24.7098 31.9993 26.4586V28.8336C31.9993 30.5826 30.5816 32.0003 28.8327 32.0003H26.4577C24.7088 32.0003 23.291 30.5826 23.291 28.8337V26.4587C23.291 24.7098 24.7087 23.292 26.4577 23.292Z" fill="#6760D7"/>
</svg>
