<svg width="45" height="45" viewBox="0 0 45 45" fill="none" xmlns="http://www.w3.org/2000/svg">
<rect width="45" height="45" rx="22.5" fill="#F2F2F3"/>
<path d="M23.6966 24.8706C21.9813 24.8706 20.5908 25.9346 20.5908 27.2471V28.8943C20.5908 30.6095 21.9813 32 23.6966 32V32C25.4119 32 26.8023 30.6095 26.8023 28.8943V27.2471C26.8023 25.9346 25.4118 24.8706 23.6966 24.8706Z" fill="#0D0D42"/>
<path d="M22.5999 22.5C25.3981 22.5 27.6665 20.3733 27.6665 17.75C27.6665 15.1266 25.3981 13 22.5999 13C19.8016 13 17.5332 15.1266 17.5332 17.75C17.5332 20.3733 19.8016 22.5 22.5999 22.5Z" fill="#6760D7"/>
<path d="M22.6 24.083C18.4046 24.0874 15.0047 27.2748 15 31.208C15 31.6452 15.3781 31.9996 15.8444 31.9996H29.3555C29.8219 31.9996 30.2 31.6452 30.2 31.208C30.1953 27.2748 26.7954 24.0873 22.6 24.083Z" fill="#6760D7"/>
</svg>
