<svg width="31" height="31" viewBox="0 0 31 31" fill="none" xmlns="http://www.w3.org/2000/svg">
<path d="M24.25 5.5H23.615L20.885 1.96C20.5332 1.50726 20.0829 1.14052 19.5683 0.887568C19.0538 0.634614 18.4884 0.502079 17.915 0.5L13.085 0.5C12.5116 0.502079 11.9462 0.634614 11.4317 0.887568C10.9171 1.14052 10.4668 1.50726 10.115 1.96L7.385 5.5H6.75C5.09301 5.50198 3.50445 6.1611 2.33277 7.33278C1.1611 8.50445 0.501985 10.093 0.5 11.75L0.5 24.25C0.501985 25.907 1.1611 27.4956 2.33277 28.6672C3.50445 29.8389 5.09301 30.498 6.75 30.5H24.25C25.907 30.498 27.4956 29.8389 28.6672 28.6672C29.8389 27.4956 30.498 25.907 30.5 24.25V11.75C30.498 10.093 29.8389 8.50445 28.6672 7.33278C27.4956 6.1611 25.907 5.50198 24.25 5.5ZM12.095 3.4875C12.2121 3.33632 12.3621 3.21383 12.5337 3.12935C12.7052 3.04488 12.8938 3.00064 13.085 3H17.915C18.1062 3.00082 18.2947 3.04514 18.4662 3.12961C18.6377 3.21407 18.7878 3.33646 18.905 3.4875L20.4575 5.5H10.5425L12.095 3.4875ZM28 24.25C28 25.2446 27.6049 26.1984 26.9017 26.9017C26.1984 27.6049 25.2446 28 24.25 28H6.75C5.75544 28 4.80161 27.6049 4.09835 26.9017C3.39509 26.1984 3 25.2446 3 24.25V11.75C3 10.7554 3.39509 9.80161 4.09835 9.09835C4.80161 8.39509 5.75544 8 6.75 8H24.25C25.2446 8 26.1984 8.39509 26.9017 9.09835C27.6049 9.80161 28 10.7554 28 11.75V24.25Z" fill="#10161F"/>
<path d="M15.5 10.4993C14.0166 10.4993 12.5666 10.9391 11.3332 11.7632C10.0999 12.5874 9.13856 13.7587 8.57091 15.1291C8.00325 16.4996 7.85472 18.0076 8.14411 19.4624C8.4335 20.9173 9.14781 22.2537 10.1967 23.3026C11.2456 24.3515 12.582 25.0658 14.0368 25.3552C15.4917 25.6445 16.9997 25.496 18.3701 24.9284C19.7406 24.3607 20.9119 23.3994 21.736 22.166C22.5601 20.9327 23 19.4826 23 17.9993C22.998 16.0108 22.2072 14.1043 20.8011 12.6982C19.395 11.2921 17.4885 10.5013 15.5 10.4993ZM15.5 22.9993C14.5111 22.9993 13.5444 22.706 12.7222 22.1566C11.8999 21.6072 11.259 20.8263 10.8806 19.9127C10.5022 18.9991 10.4032 17.9937 10.5961 17.0238C10.789 16.0539 11.2652 15.163 11.9645 14.4637C12.6637 13.7645 13.5546 13.2883 14.5246 13.0953C15.4945 12.9024 16.4998 13.0014 17.4134 13.3799C18.3271 13.7583 19.1079 14.3992 19.6574 15.2214C20.2068 16.0437 20.5 17.0104 20.5 17.9993C20.5 19.3254 19.9732 20.5971 19.0355 21.5348C18.0979 22.4725 16.8261 22.9993 15.5 22.9993Z" fill="#10161F"/>
</svg>
