<svg width="23" height="16" viewBox="0 0 23 16" fill="none" xmlns="http://www.w3.org/2000/svg">
<path d="M1.30778 1.82342H21.4744C21.7176 1.82342 21.9507 1.72737 22.1226 1.55639C22.2945 1.38541 22.3911 1.15351 22.3911 0.911712C22.3911 0.669911 22.2945 0.438013 22.1226 0.267034C21.9507 0.0960552 21.7176 0 21.4744 0H1.30778C1.06466 0 0.831507 0.0960552 0.659599 0.267034C0.48769 0.438013 0.391113 0.669911 0.391113 0.911712C0.391113 1.15351 0.48769 1.38541 0.659599 1.55639C0.831507 1.72737 1.06466 1.82342 1.30778 1.82342Z" fill="#8994A3"/>
<path d="M4.9738 4.55847C4.73068 4.55847 4.49752 4.65453 4.32561 4.82551C4.15371 4.99649 4.05713 5.22838 4.05713 5.47018C4.05713 5.71198 4.15371 5.94388 4.32561 6.11486C4.49752 6.28584 4.73068 6.3819 4.9738 6.3819H17.8071C18.0502 6.3819 18.2834 6.28584 18.4553 6.11486C18.6272 5.94388 18.7238 5.71198 18.7238 5.47018C18.7238 5.22838 18.6272 4.99649 18.4553 4.82551C18.2834 4.65453 18.0502 4.55847 17.8071 4.55847H4.9738Z" fill="#8994A3"/>
<path d="M17.8071 13.6758H4.9738C4.73068 13.6758 4.49752 13.7718 4.32561 13.9428C4.15371 14.1138 4.05713 14.3457 4.05713 14.5875C4.05713 14.8293 4.15371 15.0612 4.32561 15.2322C4.49752 15.4032 4.73068 15.4992 4.9738 15.4992H17.8071C18.0502 15.4992 18.2834 15.4032 18.4553 15.2322C18.6272 15.0612 18.7238 14.8293 18.7238 14.5875C18.7238 14.3457 18.6272 14.1138 18.4553 13.9428C18.2834 13.7718 18.0502 13.6758 17.8071 13.6758Z" fill="#8994A3"/>
<path d="M21.4744 9.11707H1.30778C1.06466 9.11707 0.831507 9.21312 0.659599 9.3841C0.48769 9.55508 0.391113 9.78698 0.391113 10.0288C0.391113 10.2706 0.48769 10.5025 0.659599 10.6735C0.831507 10.8444 1.06466 10.9405 1.30778 10.9405H21.4744C21.7176 10.9405 21.9507 10.8444 22.1226 10.6735C22.2945 10.5025 22.3911 10.2706 22.3911 10.0288C22.3911 9.78698 22.2945 9.55508 22.1226 9.3841C21.9507 9.21312 21.7176 9.11707 21.4744 9.11707Z" fill="#8994A3"/>
</svg>
