<svg width="23" height="23" viewBox="0 0 23 23" fill="none" xmlns="http://www.w3.org/2000/svg">
<path d="M11.5 4.3125L14.375 8.625L20.125 10.0625L15.8125 14.375V15.8125L17.25 20.125L11.5 17.25L5.75 20.125L7.1875 14.375L2.875 10.0625L8.625 8.625L11.5 4.3125Z" fill="#6760D7" fill-opacity="0.2"/>
<path d="M6.81037 19.1721C6.77228 19.3458 6.96278 19.4791 7.11289 19.3838L11.3929 16.6676C11.4587 16.6259 11.5427 16.6262 11.6082 16.6683L15.8876 19.4198C16.0375 19.5162 16.2291 19.3832 16.1912 19.209L15.0632 14.0303C15.048 13.9605 15.0712 13.8879 15.124 13.8398L18.9263 10.3799C19.0548 10.263 18.9833 10.0491 18.8103 10.0329L13.8282 9.56612C13.7539 9.55915 13.6896 9.51134 13.6615 9.44212L11.6854 4.56697C11.618 4.4007 11.3827 4.4004 11.3149 4.56649L9.34017 9.40254C9.312 9.47151 9.24784 9.51911 9.17366 9.52606L4.18805 9.99313C4.01554 10.0093 3.94379 10.2222 4.07134 10.3395L7.87827 13.8397C7.93066 13.8879 7.95351 13.9603 7.93826 14.0298L6.81037 19.1721ZM4.79377 22.7417C4.64346 22.8372 4.45276 22.7034 4.49132 22.5296L6.24875 14.607C6.26426 14.537 6.24118 14.4641 6.18823 14.4158L0.335502 9.08091C0.206971 8.96375 0.278899 8.7497 0.452099 8.73393L8.14253 8.0337C8.21721 8.0269 8.28182 7.97889 8.30987 7.90935L11.3153 0.459698C11.3826 0.292806 11.6189 0.292797 11.6862 0.459684L14.6916 7.90776C14.7197 7.9773 14.7843 8.0253 14.859 8.0321L22.5479 8.73232C22.7211 8.74809 22.793 8.96215 22.6645 9.07931L16.8118 14.4142C16.7588 14.4625 16.7357 14.5354 16.7513 14.6054L18.5101 22.528C18.5487 22.7018 18.358 22.8356 18.2077 22.7402L11.608 18.5516C11.5425 18.5101 11.459 18.5101 11.3936 18.5516L4.79377 22.7417Z" fill="#6760D7"/>
</svg>
