<svg width="7" height="7" viewBox="0 0 7 7" fill="none" xmlns="http://www.w3.org/2000/svg">
<path d="M5.38697 6.10042C5.47381 6.37964 5.15061 6.60544 4.9183 6.42785L3.68234 5.48299C3.57479 5.40077 3.4255 5.40077 3.31795 5.483L2.08198 6.42785C1.84968 6.60544 1.52648 6.37965 1.61332 6.10042L2.103 4.52587C2.14048 4.40536 2.09853 4.27429 1.99806 4.19793L0.709012 3.21825C0.480245 3.04439 0.603199 2.6794 0.890536 2.6794H2.4521C2.58371 2.6794 2.69996 2.59361 2.73876 2.46784L3.21348 0.929162C3.30051 0.647086 3.69979 0.647087 3.78681 0.929163L4.26153 2.46784C4.30033 2.59361 4.41658 2.6794 4.54819 2.6794H6.10956C6.39689 2.6794 6.51985 3.04437 6.2911 3.21824L5.00221 4.19792C4.90175 4.27429 4.85981 4.40535 4.89728 4.52585L5.38697 6.10042Z" fill="#45AEF5"/>
</svg>
