<svg width="18" height="18" viewBox="0 0 18 18" fill="none" xmlns="http://www.w3.org/2000/svg">
<path d="M5.625 9.75C4.95749 9.75 4.30497 9.55206 3.74995 9.18121C3.19493 8.81036 2.76235 8.28326 2.50691 7.66656C2.25146 7.04986 2.18462 6.37126 2.31485 5.71657C2.44507 5.06189 2.76651 4.46052 3.23851 3.98852C3.71052 3.51651 4.31188 3.19508 4.96657 3.06485C5.62126 2.93463 6.29986 3.00146 6.91656 3.25691C7.53326 3.51235 8.06036 3.94494 8.43121 4.49995C8.80206 5.05497 9 5.70749 9 6.375C8.99901 7.2698 8.64311 8.12767 8.01039 8.76039C7.37767 9.39311 6.5198 9.74901 5.625 9.75ZM10.5 18H0.75C0.551088 18 0.360322 17.921 0.21967 17.7803C0.0790176 17.6397 0 17.4489 0 17.25V16.875C0 15.3832 0.592632 13.9524 1.64752 12.8975C2.70242 11.8426 4.13316 11.25 5.625 11.25C7.11684 11.25 8.54758 11.8426 9.60248 12.8975C10.6574 13.9524 11.25 15.3832 11.25 16.875V17.25C11.25 17.4489 11.171 17.6397 11.0303 17.7803C10.8897 17.921 10.6989 18 10.5 18ZM13.125 6.75C12.4575 6.75 11.805 6.55206 11.25 6.18121C10.6949 5.81036 10.2624 5.28326 10.0069 4.66656C9.75146 4.04986 9.68462 3.37126 9.81485 2.71657C9.94507 2.06189 10.2665 1.46052 10.7385 0.988516C11.2105 0.516514 11.8119 0.195076 12.4666 0.0648512C13.1213 -0.0653739 13.7999 0.00146234 14.4166 0.256908C15.0333 0.512354 15.5604 0.944936 15.9312 1.49995C16.3021 2.05497 16.5 2.70749 16.5 3.375C16.499 4.2698 16.1431 5.12767 15.5104 5.76039C14.8777 6.39311 14.0198 6.74901 13.125 6.75ZM12.0592 8.26575C11.3607 8.35947 10.6891 8.59643 10.0864 8.96179C9.48368 9.32715 8.96293 9.81303 8.55675 10.389C10.2374 11.1522 11.558 12.5357 12.2423 14.25H17.25C17.4489 14.25 17.6397 14.171 17.7803 14.0303C17.921 13.8897 18 13.6989 18 13.5V13.4715C17.9992 12.7239 17.839 11.9851 17.5299 11.3043C17.2209 10.6236 16.7702 10.0166 16.208 9.52392C15.6457 9.03121 14.9848 8.66413 14.2694 8.44717C13.5539 8.2302 12.8005 8.16835 12.0592 8.26575Z" fill="#293342"/>
</svg>
