<svg width="45" height="45" viewBox="0 0 45 45" fill="none" xmlns="http://www.w3.org/2000/svg">
<rect width="45" height="45" rx="22.5" fill="#F2F2F3"/>
<path d="M30.575 14.0041C30.1237 13.5934 29.5942 13.2974 29.025 13.1377C28.4557 12.978 27.861 12.9586 27.284 13.0809L25.8875 13.454C25.1588 13.5997 24.4999 14.0195 24.0256 14.6405C23.5513 15.2614 23.2916 16.0442 23.2917 16.8525V29.4155C23.2917 29.8735 22.958 30.2734 22.5 30.2734V30.2734C22.042 30.2734 21.7083 29.8735 21.7083 29.4155V16.8525C21.711 16.0516 21.4573 15.2749 20.991 14.6564C20.5247 14.0378 19.8752 13.6162 19.1544 13.4644L17.6708 13.0705C17.1002 12.9566 16.5135 12.9809 15.9524 13.1418C15.3913 13.3026 14.8695 13.596 14.4239 14.0012C13.9782 14.4065 13.6197 14.9136 13.3737 15.4868C13.1276 16.0599 13 16.6851 13 17.318V26.6393C13 27.6505 13.3254 28.6296 13.9192 29.4059C14.5131 30.1823 15.3379 30.7066 16.2498 30.8876L21.2262 31.8748C22.0685 32.0417 22.9315 32.0417 23.7738 31.8748L28.7542 30.8876C29.6654 30.7057 30.4892 30.181 31.0823 29.4047C31.6754 28.6285 32.0001 27.6499 32 26.6393V17.318C32.0004 16.6853 31.8728 16.0603 31.6265 15.4875C31.3802 14.9148 31.0212 14.4083 30.575 14.0041Z" fill="#6760D7"/>
</svg>
