<svg width="25" height="25" viewBox="0 0 25 25" fill="none" xmlns="http://www.w3.org/2000/svg">
<path fill-rule="evenodd" clip-rule="evenodd" d="M14.3885 1.7509C14.3124 1.74202 14.2355 1.74202 14.1594 1.7509C14.0652 1.76253 13.9245 1.80555 13.6443 2.02765C13.3501 2.26021 12.9966 2.61254 12.4559 3.15325C11.9152 3.69396 11.564 4.04745 11.3303 4.34164C11.1082 4.62072 11.064 4.76258 11.0535 4.85677C11.0447 4.93287 11.0447 5.00974 11.0535 5.08584C11.0652 5.18003 11.1082 5.32073 11.3303 5.60096C11.5628 5.89515 11.9152 6.24865 12.4559 6.78936L18.2106 12.5453C18.7513 13.0848 19.1048 13.436 19.399 13.6697C19.6793 13.8918 19.82 13.936 19.9142 13.9465C19.9903 13.9553 20.0671 13.9553 20.1432 13.9465C20.2374 13.9348 20.3781 13.8918 20.6584 13.6697C20.9525 13.4371 21.306 13.0848 21.8467 12.5441C22.3875 12.0034 22.7386 11.6499 22.9723 11.3557C23.1944 11.0766 23.2386 10.9348 23.2491 10.8406C23.2579 10.7645 23.2579 10.6876 23.2491 10.6115C23.2375 10.5173 23.1944 10.3766 22.9723 10.0964C22.7398 9.80219 22.3875 9.4487 21.8467 8.908L16.092 3.15209C15.5513 2.61254 15.1978 2.26137 14.9036 2.02765C14.6234 1.80555 14.4827 1.76137 14.3885 1.7509ZM13.9571 0.0183143C14.1675 -0.00610475 14.3803 -0.00610475 14.5908 0.0183143C15.1373 0.0822688 15.5815 0.33925 15.9873 0.661348C16.3711 0.963679 16.7943 1.38927 17.2897 1.88462L23.1154 7.7103C23.6107 8.20566 24.0352 8.62892 24.3387 9.01265C24.6607 9.41847 24.9177 9.8615 24.9817 10.4092C25.0061 10.6196 25.0061 10.8324 24.9817 11.0429C24.9177 11.5906 24.6607 12.0336 24.3387 12.4394C24.0363 12.8232 23.6107 13.2464 23.1154 13.743L23.0456 13.8127C22.5491 14.3081 22.1258 14.7325 21.7433 15.036C21.3363 15.3581 20.8932 15.6151 20.3456 15.679C20.135 15.7037 19.9223 15.7037 19.7118 15.679C19.1653 15.6151 18.7211 15.3581 18.3153 15.036C17.9316 14.7337 17.5083 14.3081 17.0129 13.8127L16.3013 13.1011L13.1012 16.3011L13.8129 17.0116C14.3082 17.5081 14.7327 17.9326 15.0362 18.314C15.3583 18.7209 15.6152 19.164 15.6792 19.7117C15.7036 19.9221 15.7036 20.1349 15.6792 20.3454C15.6152 20.8931 15.3583 21.3361 15.0362 21.7419C14.7338 22.1257 14.3082 22.5489 13.8129 23.0454L13.7431 23.1152C13.2466 23.6106 12.8222 24.035 12.4408 24.3385C12.0338 24.6606 11.5907 24.9176 11.0431 24.9815C10.8325 25.0062 10.6199 25.0062 10.4093 24.9815C9.86281 24.9176 9.41861 24.6606 9.01279 24.3385C8.62906 24.0361 8.2058 23.6106 7.71044 23.1152L1.88475 17.2895C1.3894 16.7942 0.96497 16.3709 0.661477 15.9872C0.339378 15.5814 0.0823962 15.1383 0.0184416 14.5906C-0.00614719 14.3801 -0.00614719 14.1674 0.0184416 13.9569C0.0823962 13.4092 0.339378 12.9662 0.661477 12.5604C0.963808 12.1767 1.3894 11.7534 1.88475 11.2569L1.95452 11.1871C2.45104 10.6917 2.87547 10.2673 3.25687 9.96383C3.66386 9.64173 4.10689 9.38475 4.65457 9.32079C4.86504 9.29637 5.07784 9.29637 5.2883 9.32079C5.83483 9.38475 6.27902 9.64173 6.68484 9.96383C7.06857 10.2662 7.49183 10.6917 7.98719 11.1871L8.25929 11.458L11.4582 8.25915L11.1873 7.98821C10.6919 7.49169 10.2675 7.06727 9.96397 6.68587C9.64187 6.27888 9.38489 5.83585 9.32094 5.28817C9.29634 5.07764 9.29634 4.86496 9.32094 4.65444C9.38489 4.10675 9.64187 3.66372 9.96397 3.2579C10.2663 2.87417 10.6919 2.45091 11.1873 1.95556L11.257 1.88579C11.7535 1.38927 12.178 0.964841 12.5594 0.661348C12.9664 0.33925 13.4094 0.0822688 13.9571 0.0183143ZM12.6919 9.49172L9.49187 12.6918L11.8675 15.0674L15.0676 11.8685L12.6919 9.49172ZM18.8816 0.834607C18.9626 0.753565 19.0587 0.689276 19.1646 0.645413C19.2704 0.601551 19.3839 0.578975 19.4984 0.578975C19.613 0.578975 19.7265 0.601551 19.8323 0.645413C19.9382 0.689276 20.0343 0.753565 20.1153 0.834607L23.7247 4.44397C23.8787 4.60929 23.9626 4.82795 23.9586 5.05389C23.9546 5.27982 23.8631 5.49539 23.7033 5.65518C23.5435 5.81496 23.328 5.90649 23.102 5.91048C22.8761 5.91446 22.6574 5.8306 22.4921 5.67655L18.8816 2.06951C18.8005 1.98852 18.7362 1.89236 18.6924 1.78651C18.6485 1.68066 18.6259 1.56721 18.6259 1.45264C18.6259 1.33807 18.6485 1.22462 18.6924 1.11877C18.7362 1.01292 18.8005 0.915597 18.8816 0.834607ZM5.08598 11.0534C5.00987 11.0445 4.933 11.0445 4.8569 11.0534C4.76271 11.065 4.62201 11.108 4.34178 11.3301C4.04759 11.5627 3.69409 11.915 3.15338 12.4557C2.61267 12.9964 2.26151 13.3499 2.02778 13.6441C1.80568 13.9232 1.7615 14.0651 1.75103 14.1592C1.74215 14.2353 1.74215 14.3122 1.75103 14.3883C1.76266 14.4825 1.80568 14.6232 2.02778 14.9034C2.26034 15.1976 2.61267 15.5511 3.15338 16.0918L8.90814 21.8477C9.44885 22.3873 9.80234 22.7385 10.0965 22.9722C10.3768 23.1943 10.5175 23.2385 10.6117 23.2489C10.6878 23.2578 10.7646 23.2578 10.8407 23.2489C10.9349 23.2373 11.0756 23.1943 11.3559 22.9722C11.65 22.7396 12.0035 22.3873 12.5443 21.8466C13.085 21.3059 13.4361 20.9524 13.6699 20.6582C13.8919 20.3791 13.9361 20.2372 13.9466 20.1431C13.9554 20.067 13.9554 19.9901 13.9466 19.914C13.935 19.8198 13.8919 19.6791 13.6699 19.3989C13.4373 19.1047 13.085 18.7512 12.5443 18.2105L6.7895 12.4546C6.24879 11.915 5.89529 11.5639 5.6011 11.3301C5.32086 11.108 5.18016 11.0638 5.08598 11.0534ZM0.833573 18.8814C0.997094 18.7181 1.21875 18.6264 1.44986 18.6264C1.68097 18.6264 1.90263 18.7181 2.06615 18.8814L5.67668 22.4908C5.76237 22.5706 5.83109 22.6669 5.87876 22.7739C5.92642 22.8809 5.95205 22.9963 5.95412 23.1134C5.95619 23.2305 5.93465 23.3468 5.89078 23.4554C5.84692 23.564 5.78164 23.6627 5.69882 23.7455C5.61601 23.8283 5.51736 23.8936 5.40877 23.9375C5.30018 23.9813 5.18386 24.0029 5.06676 24.0008C4.94966 23.9987 4.83418 23.9731 4.7272 23.9254C4.62023 23.8778 4.52394 23.809 4.4441 23.7234L0.833573 20.114C0.670255 19.9505 0.578521 19.7288 0.578521 19.4977C0.578521 19.2666 0.670255 19.0449 0.833573 18.8814Z" fill="#10161F" fill-opacity="0.5"/>
</svg>
