<svg width="17" height="15" viewBox="0 0 17 15" fill="none" xmlns="http://www.w3.org/2000/svg">
<path d="M6.73519 10.5334C9.55112 10.5334 11.8337 8.39964 11.8337 5.76669C11.8337 3.13374 9.55112 1 6.73519 1C3.9201 1 1.63752 3.13374 1.63752 5.76669C1.63752 6.47563 1.80253 7.14817 2.0992 7.7531L1 10.5334L4.18677 9.89552C4.97463 10.318 5.84878 10.5368 6.73519 10.5334Z" stroke="#10161F" stroke-opacity="0.75" stroke-linejoin="round"/>
<path d="M7.50293 13.2408C8.34305 13.7427 9.29584 14.0046 10.2647 14C11.1514 14.0034 12.0258 13.7846 12.8139 13.3621L15.9999 14L14.8998 11.2197C15.2035 10.6052 15.362 9.92425 15.3624 9.23331C15.3624 8.15431 14.979 7.15937 14.3332 6.3603C13.709 5.58896 12.8398 5.00049 11.8331 4.69629" stroke="#10161F" stroke-opacity="0.75" stroke-linecap="round" stroke-linejoin="round"/>
<path d="M9.33265 6.63324C8.8724 6.63324 8.49929 6.24522 8.49929 5.76657C8.49929 5.28792 8.8724 4.8999 9.33265 4.8999C9.79291 4.8999 10.166 5.28792 10.166 5.76657C10.166 6.24522 9.79291 6.63324 9.33265 6.63324Z" fill="#10161F" fill-opacity="0.75"/>
<path d="M6.83265 6.63324C6.3724 6.63324 5.99929 6.24522 5.99929 5.76657C5.99929 5.28792 6.3724 4.8999 6.83265 4.8999C7.29291 4.8999 7.66602 5.28792 7.66602 5.76657C7.66602 6.24522 7.29291 6.63324 6.83265 6.63324Z" fill="#10161F" fill-opacity="0.75"/>
<path d="M4.33363 6.63324C3.87338 6.63324 3.50027 6.24522 3.50027 5.76657C3.50027 5.28792 3.87338 4.8999 4.33363 4.8999C4.79388 4.8999 5.16699 5.28792 5.16699 5.76657C5.16699 6.24522 4.79388 6.63324 4.33363 6.63324Z" fill="#10161F" fill-opacity="0.75"/>
</svg>
