<svg width="24" height="20" viewBox="0 0 24 20" fill="none" xmlns="http://www.w3.org/2000/svg">
<path d="M9.01611 5.23972C9.01611 4.449 9.6582 3.81071 10.4536 3.81071C11.249 3.81071 11.8911 4.449 11.8911 5.23972C11.8911 6.03044 11.249 6.66874 10.4536 6.66874C9.6582 6.66874 9.01611 6.03044 9.01611 5.23972ZM23.3911 4.76338V10.4794C23.3911 13.1088 21.2444 15.2428 18.5994 15.2428H9.97445C7.32945 15.2428 5.18278 13.1088 5.18278 10.4794V4.76338C5.18278 2.134 7.32945 0 9.97445 0H18.5994C21.2444 0 23.3911 2.134 23.3911 4.76338ZM7.09945 10.4794C7.09945 11.213 7.37736 11.8799 7.83736 12.3943L12.859 7.4023C13.7982 6.46868 15.4369 6.46868 16.3761 7.4023L17.3728 8.39308C17.5932 8.6122 17.9669 8.6122 18.1874 8.39308L21.4744 5.1254V4.76338C21.4744 3.19147 20.1807 1.90535 18.5994 1.90535H9.97445C8.3932 1.90535 7.09945 3.19147 7.09945 4.76338V10.4794ZM21.4744 10.4794V7.82148L19.5386 9.74588C18.5994 10.6795 16.9607 10.6795 16.0215 9.74588L15.0249 8.7551C14.8044 8.53598 14.4403 8.53598 14.2103 8.7551L9.61986 13.3184C9.73486 13.3375 9.84986 13.3375 9.97445 13.3375H18.5994C20.1807 13.3375 21.4744 12.0514 21.4744 10.4794ZM16.6828 17.1482H5.18278C3.60153 17.1482 2.30778 15.8621 2.30778 14.2902V8.57409C2.30778 7.86911 2.56653 7.19271 3.0457 6.66874C3.40028 6.27814 3.36195 5.67795 2.96903 5.32546C2.57611 4.97297 1.97236 5.01108 1.61778 5.40168C0.831947 6.27814 0.391113 7.4023 0.391113 8.58362V14.2997C0.391113 16.9291 2.53778 19.0631 5.18278 19.0631H16.6828C17.2099 19.0631 17.6411 18.6344 17.6411 18.1104C17.6411 17.5864 17.2099 17.1577 16.6828 17.1577V17.1482Z" fill="#535D6B"/>
</svg>
