<svg width="22" height="16" viewBox="0 0 22 16" fill="none" xmlns="http://www.w3.org/2000/svg">
<path d="M0.916667 1.82342H21.0833C21.3264 1.82342 21.5596 1.72737 21.7315 1.55639C21.9034 1.38541 22 1.15351 22 0.911712C22 0.669911 21.9034 0.438013 21.7315 0.267034C21.5596 0.0960552 21.3264 0 21.0833 0H0.916667C0.673552 0 0.440394 0.0960552 0.268485 0.267034C0.0965771 0.438013 0 0.669911 0 0.911712C0 1.15351 0.0965771 1.38541 0.268485 1.55639C0.440394 1.72737 0.673552 1.82342 0.916667 1.82342Z" fill="#535D6B"/>
<path d="M0.916667 6.3819H13.75C13.9931 6.3819 14.2263 6.28584 14.3982 6.11486C14.5701 5.94388 14.6667 5.71198 14.6667 5.47018C14.6667 5.22838 14.5701 4.99649 14.3982 4.82551C14.2263 4.65453 13.9931 4.55847 13.75 4.55847H0.916667C0.673552 4.55847 0.440394 4.65453 0.268485 4.82551C0.0965771 4.99649 0 5.22838 0 5.47018C0 5.71198 0.0965771 5.94388 0.268485 6.11486C0.440394 6.28584 0.673552 6.3819 0.916667 6.3819Z" fill="#535D6B"/>
<path d="M13.75 13.6758H0.916667C0.673552 13.6758 0.440394 13.7718 0.268485 13.9428C0.0965771 14.1138 0 14.3457 0 14.5875C0 14.8293 0.0965771 15.0612 0.268485 15.2322C0.440394 15.4032 0.673552 15.4992 0.916667 15.4992H13.75C13.9931 15.4992 14.2263 15.4032 14.3982 15.2322C14.5701 15.0612 14.6667 14.8293 14.6667 14.5875C14.6667 14.3457 14.5701 14.1138 14.3982 13.9428C14.2263 13.7718 13.9931 13.6758 13.75 13.6758Z" fill="#535D6B"/>
<path d="M21.0833 9.11707H0.916667C0.673552 9.11707 0.440394 9.21312 0.268485 9.3841C0.0965771 9.55508 0 9.78698 0 10.0288C0 10.2706 0.0965771 10.5025 0.268485 10.6735C0.440394 10.8444 0.673552 10.9405 0.916667 10.9405H21.0833C21.3264 10.9405 21.5596 10.8444 21.7315 10.6735C21.9034 10.5025 22 10.2706 22 10.0288C22 9.78698 21.9034 9.55508 21.7315 9.3841C21.5596 9.21312 21.3264 9.11707 21.0833 9.11707Z" fill="#535D6B"/>
</svg>
