<svg width="23" height="16" viewBox="0 0 23 16" fill="none" xmlns="http://www.w3.org/2000/svg">
<path d="M1.30778 1.82342H21.4744C21.7176 1.82342 21.9507 1.72737 22.1226 1.55639C22.2945 1.38541 22.3911 1.15351 22.3911 0.911712C22.3911 0.669911 22.2945 0.438013 22.1226 0.267034C21.9507 0.0960552 21.7176 0 21.4744 0H1.30778C1.06466 0 0.831507 0.0960552 0.659599 0.267034C0.48769 0.438013 0.391113 0.669911 0.391113 0.911712C0.391113 1.15351 0.48769 1.38541 0.659599 1.55639C0.831507 1.72737 1.06466 1.82342 1.30778 1.82342Z" fill="#535D6B"/>
<path d="M21.4741 4.55847H8.64079C8.39767 4.55847 8.16452 4.65453 7.99261 4.82551C7.8207 4.99649 7.72412 5.22838 7.72412 5.47018C7.72412 5.71198 7.8207 5.94388 7.99261 6.11486C8.16452 6.28584 8.39767 6.3819 8.64079 6.3819H21.4741C21.7172 6.3819 21.9504 6.28584 22.1223 6.11486C22.2942 5.94388 22.3908 5.71198 22.3908 5.47018C22.3908 5.22838 22.2942 4.99649 22.1223 4.82551C21.9504 4.65453 21.7172 4.55847 21.4741 4.55847Z" fill="#535D6B"/>
<path d="M21.4741 13.6758H8.64079C8.39767 13.6758 8.16452 13.7718 7.99261 13.9428C7.8207 14.1138 7.72412 14.3457 7.72412 14.5875C7.72412 14.8293 7.8207 15.0612 7.99261 15.2322C8.16452 15.4032 8.39767 15.4992 8.64079 15.4992H21.4741C21.7172 15.4992 21.9504 15.4032 22.1223 15.2322C22.2942 15.0612 22.3908 14.8293 22.3908 14.5875C22.3908 14.3457 22.2942 14.1138 22.1223 13.9428C21.9504 13.7718 21.7172 13.6758 21.4741 13.6758Z" fill="#535D6B"/>
<path d="M21.4744 9.11707H1.30778C1.06466 9.11707 0.831507 9.21312 0.659599 9.3841C0.48769 9.55508 0.391113 9.78698 0.391113 10.0288C0.391113 10.2706 0.48769 10.5025 0.659599 10.6735C0.831507 10.8444 1.06466 10.9405 1.30778 10.9405H21.4744C21.7176 10.9405 21.9507 10.8444 22.1226 10.6735C22.2945 10.5025 22.3911 10.2706 22.3911 10.0288C22.3911 9.78698 22.2945 9.55508 22.1226 9.3841C21.9507 9.21312 21.7176 9.11707 21.4744 9.11707Z" fill="#535D6B"/>
</svg>
