<svg width="18" height="18" viewBox="0 0 18 18" fill="none" xmlns="http://www.w3.org/2000/svg">
<path d="M6.6827 15.5026C6.5402 15.5026 6.3977 15.4501 6.2852 15.3376C6.0677 15.1201 6.0677 14.7601 6.2852 14.5426L11.1752 9.65264C11.5352 9.29264 11.5352 8.70764 11.1752 8.34764L6.2852 3.45764C6.0677 3.24014 6.0677 2.88014 6.2852 2.66264C6.5027 2.44514 6.86269 2.44514 7.08019 2.66264L11.9702 7.55264C12.3527 7.93514 12.5702 8.45264 12.5702 9.00014C12.5702 9.54764 12.3602 10.0651 11.9702 10.4476L7.08019 15.3376C6.96769 15.4426 6.8252 15.5026 6.6827 15.5026Z" fill="#556170"/>
</svg>
