<svg width="16" height="19" viewBox="0 0 16 19" fill="none" xmlns="http://www.w3.org/2000/svg">
<path d="M8.69658 11.8706C6.98133 11.8706 5.59082 12.9346 5.59082 14.2471V15.8943C5.59082 17.6095 6.98132 19 8.69658 19V19C10.4119 19 11.8023 17.6095 11.8023 15.8943V14.2471C11.8023 12.9346 10.4118 11.8706 8.69658 11.8706Z" fill="#0D0D42"/>
<path d="M7.59987 9.49998C10.3981 9.49998 12.6665 7.37334 12.6665 4.74999C12.6665 2.12664 10.3981 0 7.59987 0C4.80163 0 2.5332 2.12664 2.5332 4.74999C2.5332 7.37334 4.80163 9.49998 7.59987 9.49998Z" fill="#F2F2F3"/>
<path d="M7.60001 11.083C3.40457 11.0874 0.00467084 14.2748 0 18.208C0 18.6452 0.378061 18.9996 0.844432 18.9996H14.3555C14.8219 18.9996 15.2 18.6452 15.2 18.208C15.1953 14.2748 11.7954 11.0873 7.60001 11.083Z" fill="#F2F2F3"/>
</svg>
