<svg width="21" height="17" viewBox="0 0 21 17" fill="none" xmlns="http://www.w3.org/2000/svg">
<path d="M20.3911 10.9848V11.3636C20.3911 11.7803 20.0161 12.1212 19.5578 12.1212C19.0994 12.1212 18.7244 11.7803 18.7244 11.3636V10.9848C18.7244 10.3561 18.1661 9.84848 17.4744 9.84848H16.2244V15.9091C16.2244 16.3258 15.8494 16.6667 15.3911 16.6667C14.9328 16.6667 14.5578 16.3258 14.5578 15.9091V9.84848H13.3078C12.6161 9.84848 12.0578 10.3561 12.0578 10.9848V11.3636C12.0578 11.7803 11.6828 12.1212 11.2244 12.1212C10.7661 12.1212 10.3911 11.7803 10.3911 11.3636V10.9848C10.3911 9.52273 11.6994 8.33333 13.3078 8.33333H17.4744C19.0828 8.33333 20.3911 9.52273 20.3911 10.9848ZM11.2244 1.51515C12.5994 1.51515 13.7244 2.53788 13.7244 3.78788V4.54545C13.7244 4.96212 14.0994 5.30303 14.5578 5.30303C15.0161 5.30303 15.3911 4.96212 15.3911 4.54545V3.78788C15.3911 1.69697 13.5244 0 11.2244 0H4.55778C2.25778 0 0.391113 1.69697 0.391113 3.78788V4.54545C0.391113 4.96212 0.766113 5.30303 1.22445 5.30303C1.68278 5.30303 2.05778 4.96212 2.05778 4.54545V3.78788C2.05778 2.53788 3.18278 1.51515 4.55778 1.51515H7.05778V15.9091C7.05778 16.3258 7.43278 16.6667 7.89111 16.6667C8.34945 16.6667 8.72445 16.3258 8.72445 15.9091V1.51515H11.2244Z" fill="#8994A3"/>
</svg>
