<svg width="12" height="15" viewBox="0 0 12 15" fill="none" xmlns="http://www.w3.org/2000/svg">
<path d="M10.2 5.265V4.375C10.2 3.21468 9.7575 2.10188 8.96985 1.28141C8.1822 0.460936 7.11391 0 6 0C4.88609 0 3.8178 0.460936 3.03015 1.28141C2.2425 2.10188 1.8 3.21468 1.8 4.375V5.265C1.26562 5.50794 0.810776 5.90783 0.491099 6.41576C0.171423 6.92369 0.000767025 7.51765 0 8.125V11.875C0.000952715 12.7035 0.317329 13.4978 0.879732 14.0836C1.44213 14.6694 2.20464 14.999 3 15H9C9.79536 14.999 10.5579 14.6694 11.1203 14.0836C11.6827 13.4978 11.999 12.7035 12 11.875V8.125C11.9992 7.51765 11.8286 6.92369 11.5089 6.41576C11.1892 5.90783 10.7344 5.50794 10.2 5.265ZM3 4.375C3 3.5462 3.31607 2.75134 3.87868 2.16529C4.44129 1.57924 5.20435 1.25 6 1.25C6.79565 1.25 7.55871 1.57924 8.12132 2.16529C8.68393 2.75134 9 3.5462 9 4.375V5H3V4.375ZM10.8 11.875C10.8 12.3723 10.6104 12.8492 10.2728 13.2008C9.93523 13.5525 9.47739 13.75 9 13.75H3C2.52261 13.75 2.06477 13.5525 1.72721 13.2008C1.38964 12.8492 1.2 12.3723 1.2 11.875V8.125C1.2 7.62772 1.38964 7.15081 1.72721 6.79917C2.06477 6.44754 2.52261 6.25 3 6.25H9C9.47739 6.25 9.93523 6.44754 10.2728 6.79917C10.6104 7.15081 10.8 7.62772 10.8 8.125V11.875Z" fill="#10161F" fill-opacity="0.75"/>
<path d="M6.00039 8.75C5.84126 8.75 5.68865 8.81585 5.57613 8.93306C5.4636 9.05027 5.40039 9.20924 5.40039 9.375V10.625C5.40039 10.7908 5.4636 10.9497 5.57613 11.0669C5.68865 11.1842 5.84126 11.25 6.00039 11.25C6.15952 11.25 6.31213 11.1842 6.42465 11.0669C6.53718 10.9497 6.60039 10.7908 6.60039 10.625V9.375C6.60039 9.20924 6.53718 9.05027 6.42465 8.93306C6.31213 8.81585 6.15952 8.75 6.00039 8.75Z" fill="#10161F" fill-opacity="0.75"/>
</svg>
