<svg width="25" height="25" viewBox="0 0 25 25" fill="none" xmlns="http://www.w3.org/2000/svg">
<path d="M12.5 25C10.8062 25 9.20833 24.2563 8.11667 22.9594C6.5125 23.1438 4.85938 22.5365 3.66146 21.3396C2.46458 20.1417 1.86042 18.4854 2.00521 16.7958C0.74375 15.7917 0 14.1938 0 12.5C0 10.8062 0.74375 9.20833 2.04167 8.11667C1.85938 6.51562 2.46354 4.85938 3.66146 3.66146C4.85938 2.4625 6.5125 1.85937 8.20417 2.00521C9.20833 0.744792 10.8062 0 12.5 0C14.1938 0 15.7917 0.74375 16.8833 2.04062C18.4896 1.85729 20.1406 2.46354 21.3385 3.66042C22.5354 4.85833 23.1396 6.51458 22.9948 8.20417C24.2562 9.20833 25 10.8062 25 12.5C25 14.1938 24.2563 15.7917 22.9583 16.8833C23.1406 18.4844 22.5365 20.1406 21.3385 21.3385C20.1396 22.5365 18.4833 23.1396 16.7958 22.9948C15.7917 24.2552 14.1938 25 12.5 25ZM8.20104 20.9125C8.78542 20.9125 9.32708 21.1635 9.70937 21.6167C10.4052 22.4427 11.4219 22.9167 12.5 22.9167C13.5781 22.9167 14.5948 22.4427 15.2906 21.6167C15.7104 21.1177 16.3219 20.8656 16.974 20.9188C18.051 21.0094 19.1031 20.6271 19.8656 19.8646C20.6271 19.1031 21.0115 18.049 20.9198 16.9729C20.8635 16.3229 21.1177 15.7094 21.6177 15.2885C22.4427 14.5937 22.9167 13.576 22.9167 12.499C22.9167 11.4219 22.4427 10.4042 21.6177 9.70937C21.1187 9.28958 20.8635 8.675 20.9198 8.025C21.0115 6.94896 20.6281 5.89479 19.8656 5.13333C19.1031 4.37187 18.0448 3.99167 16.975 4.07917C16.3229 4.13854 15.7104 3.88021 15.2906 3.38229C14.5948 2.55625 13.5781 2.08229 12.5 2.08229C11.4219 2.08229 10.4052 2.55625 9.70937 3.38229C9.28854 3.88125 8.675 4.13125 8.02604 4.08021C6.94375 3.98646 5.89687 4.37187 5.13437 5.13437C4.37292 5.89583 3.98854 6.95 4.08021 8.02604C4.13646 8.67604 3.88229 9.28958 3.38229 9.71042C2.55729 10.4052 2.08333 11.4229 2.08333 12.5C2.08333 13.5771 2.55729 14.5948 3.38229 15.2896C3.88125 15.7094 4.13646 16.324 4.08021 16.974C3.98854 18.05 4.37187 19.1042 5.13437 19.8656C5.89687 20.6281 6.96042 21.0094 8.025 20.9198C8.08437 20.9146 8.14271 20.9125 8.20104 20.9125ZM9.375 8.33333C8.8 8.33333 8.33333 8.8 8.33333 9.375C8.33333 9.95 8.8 10.4167 9.375 10.4167C9.95 10.4167 10.4167 9.95 10.4167 9.375C10.4167 8.8 9.95 8.33333 9.375 8.33333ZM15.625 14.5833C15.05 14.5833 14.5833 15.05 14.5833 15.625C14.5833 16.2 15.05 16.6667 15.625 16.6667C16.2 16.6667 16.6667 16.2 16.6667 15.625C16.6667 15.05 16.2 14.5833 15.625 14.5833ZM11.2833 16.2031L15.45 9.95312C15.7698 9.475 15.6406 8.82708 15.1615 8.50833C14.6812 8.1875 14.0354 8.31875 13.7167 8.79687L9.55 15.0469C9.23021 15.525 9.35937 16.1729 9.83854 16.4917C10.0167 16.6104 10.2167 16.6667 10.4156 16.6667C10.7521 16.6667 11.0833 16.5042 11.2833 16.2031Z" fill="#8E9299"/>
</svg>
