<svg width="15" height="14" viewBox="0 0 15 14" fill="none" xmlns="http://www.w3.org/2000/svg">
<path d="M2.44212 5.32579C2.44212 5.22288 2.48296 5.11996 2.57046 5.03871C2.73962 4.88163 3.01962 4.88163 3.18879 5.03871L6.99212 8.57038C7.27212 8.83038 7.72712 8.83038 8.00712 8.57038L11.8105 5.03871C11.9796 4.88163 12.2596 4.88163 12.4288 5.03871C12.598 5.19579 12.598 5.45579 12.4288 5.61288L8.62546 9.14454C8.32796 9.42079 7.92546 9.57788 7.49962 9.57788C7.07379 9.57788 6.67129 9.42621 6.37379 9.14454L2.57046 5.61288C2.48879 5.53163 2.44212 5.42871 2.44212 5.32579Z" fill="#556170"/>
</svg>
