<svg width="19" height="20" viewBox="0 0 19 20" fill="none" xmlns="http://www.w3.org/2000/svg">
<path d="M17.5 3.33333H14.0825C13.695 1.43417 12.0125 0 10 0H8.33333C6.32167 0 4.63833 1.43417 4.25083 3.33333H0.833333C0.373333 3.33333 0 3.70583 0 4.16667C0 4.6275 0.373333 5 0.833333 5H1.55L2.63 16.2325C2.83667 18.3808 4.62 20 6.7775 20H11.55C13.7108 20 15.4942 18.3775 15.6983 16.2267L16.7617 5H17.4992C17.9592 5 18.3325 4.6275 18.3325 4.16667C18.3325 3.70583 17.96 3.33333 17.5 3.33333ZM8.33333 1.66667H10C11.085 1.66667 12.0017 2.36583 12.3467 3.33333H5.9875C6.3325 2.36583 7.24917 1.66667 8.33417 1.66667H8.33333ZM12.2558 13.5775C12.5817 13.9033 12.5817 14.43 12.2558 14.7558C12.0933 14.9183 11.88 15 11.6667 15C11.4533 15 11.24 14.9183 11.0775 14.7558L9.16667 12.845L7.25583 14.7558C7.09333 14.9183 6.88 15 6.66667 15C6.45333 15 6.24 14.9183 6.0775 14.7558C5.75167 14.43 5.75167 13.9033 6.0775 13.5775L7.98833 11.6667L6.0775 9.75583C5.75167 9.43 5.75167 8.90333 6.0775 8.5775C6.40333 8.25167 6.93 8.25167 7.25583 8.5775L9.16667 10.4883L11.0775 8.5775C11.4033 8.25167 11.93 8.25167 12.2558 8.5775C12.5817 8.90333 12.5817 9.43 12.2558 9.75583L10.345 11.6667L12.2558 13.5775Z" fill="white"/>
</svg>
