<svg width="13" height="16" viewBox="0 0 13 16" fill="none" xmlns="http://www.w3.org/2000/svg">
<path d="M9.7364 7.12293C9.7364 5.33767 8.28397 3.88524 6.4987 3.88524C4.71344 3.88524 3.26101 5.33767 3.26101 7.12293C3.26101 8.9082 4.71344 10.3606 6.4987 10.3606C8.28397 10.3606 9.7364 8.9082 9.7364 7.12293ZM11.0315 14.2459V15.5409H1.96593V14.2459C1.96593 12.8155 3.12567 11.6557 4.55609 11.6557H8.44132C9.87174 11.6557 11.0315 12.8155 11.0315 14.2459ZM12.9987 10.1942L12.2922 11.2801L10.09 9.88016C10.6786 9.11606 11.0321 8.16223 11.0321 7.12358C11.0321 4.62019 9.00274 2.5908 6.49935 2.5908C3.99597 2.5908 1.96658 4.62019 1.96658 7.12358C1.96658 8.16223 2.32013 9.11671 2.90875 9.88016L0.706465 11.2795L0 10.1942L1.15586 9.44177C0.846334 8.73077 0.672146 7.94725 0.672146 7.12293C0.672146 6.18335 0.900727 5.29752 1.29767 4.51076L0.176131 3.78098L0.883244 2.69506L2.00154 3.42289C2.94177 2.28193 4.30743 1.50553 5.85246 1.33393V0H7.14754V1.33328C8.69322 1.50488 10.0582 2.28128 10.9985 3.42225L12.1168 2.69441L12.8239 3.78033L11.7023 4.51011C12.0993 5.29687 12.3279 6.18271 12.3279 7.12228C12.3279 7.9466 12.1537 8.72948 11.8441 9.44112L13 10.1936L12.9987 10.1942Z" fill="#10161F" fill-opacity="0.75"/>
</svg>
