<svg width="15" height="13" viewBox="0 0 15 13" fill="none" xmlns="http://www.w3.org/2000/svg">
<path d="M13.7856 2.51013L9.17696 0.436475C8.1625 -0.135838 6.89984 -0.145993 5.87517 0.409913L1.21469 2.51013C1.1972 2.5184 1.17906 2.52726 1.16219 2.53669C0.056202 3.13396 -0.327753 4.46494 0.304633 5.50952C0.518993 5.86363 0.834307 6.15377 1.21469 6.34696L2.50029 6.92544V9.8178C2.50105 11.1112 3.39209 12.2538 4.69961 12.6382C5.60952 12.8868 6.553 13.0085 7.50017 12.9994C8.4472 13.0094 9.39068 12.8887 10.3007 12.6411C11.6083 12.2568 12.4993 11.1141 12.5001 9.82077V6.92425L13.75 6.35994V11.2286C13.75 11.5546 14.0298 11.8188 14.375 11.8188C14.7202 11.8188 15 11.5546 15 11.2286V4.1452C15.0041 3.45205 14.4247 2.81173 13.7856 2.51013ZM11.25 9.82077C11.2504 10.5944 10.7189 11.2787 9.93758 11.5107C9.14524 11.7246 8.32415 11.8283 7.50014 11.8189C6.67613 11.8283 5.85505 11.7246 5.0627 11.5107C4.28135 11.2786 3.74992 10.5944 3.75024 9.82077V7.48799L5.82332 8.42064C6.33483 8.70752 6.91902 8.85826 7.51391 8.85685C8.08015 8.86064 8.63686 8.71905 9.1245 8.4472L11.25 7.48796V9.82077ZM13.25 5.28149L8.53638 7.4065C7.87915 7.76795 7.06451 7.75771 6.41768 7.37994L1.80591 5.30806C1.29185 5.04625 1.09985 4.44043 1.37705 3.95494C1.47079 3.79075 1.61136 3.65465 1.7828 3.56201L6.46704 1.44881C7.12448 1.08817 7.93868 1.09838 8.58574 1.47538L13.1944 3.54903C13.5333 3.72678 13.7453 4.06244 13.75 4.42856C13.7506 4.77537 13.5615 5.09788 13.25 5.28149Z" fill="#10161F" fill-opacity="0.75"/>
</svg>
