<svg width="23" height="16" viewBox="0 0 23 16" fill="none" xmlns="http://www.w3.org/2000/svg">
<path d="M1.30778 1.82342H21.4744C21.7176 1.82342 21.9507 1.72737 22.1226 1.55639C22.2945 1.38541 22.3911 1.15351 22.3911 0.911712C22.3911 0.669911 22.2945 0.438013 22.1226 0.267034C21.9507 0.0960552 21.7176 0 21.4744 0H1.30778C1.06466 0 0.831507 0.0960552 0.659599 0.267034C0.48769 0.438013 0.391113 0.669911 0.391113 0.911712C0.391113 1.15351 0.48769 1.38541 0.659599 1.55639C0.831507 1.72737 1.06466 1.82342 1.30778 1.82342Z" fill="#8994A3"/>
<path d="M1.30778 6.3819H14.1411C14.3842 6.3819 14.6174 6.28584 14.7893 6.11486C14.9612 5.94388 15.0578 5.71198 15.0578 5.47018C15.0578 5.22838 14.9612 4.99649 14.7893 4.82551C14.6174 4.65453 14.3842 4.55847 14.1411 4.55847H1.30778C1.06466 4.55847 0.831507 4.65453 0.659599 4.82551C0.48769 4.99649 0.391113 5.22838 0.391113 5.47018C0.391113 5.71198 0.48769 5.94388 0.659599 6.11486C0.831507 6.28584 1.06466 6.3819 1.30778 6.3819Z" fill="#8994A3"/>
<path d="M14.1411 13.6758H1.30778C1.06466 13.6758 0.831507 13.7718 0.659599 13.9428C0.48769 14.1138 0.391113 14.3457 0.391113 14.5875C0.391113 14.8293 0.48769 15.0612 0.659599 15.2322C0.831507 15.4032 1.06466 15.4992 1.30778 15.4992H14.1411C14.3842 15.4992 14.6174 15.4032 14.7893 15.2322C14.9612 15.0612 15.0578 14.8293 15.0578 14.5875C15.0578 14.3457 14.9612 14.1138 14.7893 13.9428C14.6174 13.7718 14.3842 13.6758 14.1411 13.6758Z" fill="#8994A3"/>
<path d="M21.4744 9.11707H1.30778C1.06466 9.11707 0.831507 9.21312 0.659599 9.3841C0.48769 9.55508 0.391113 9.78698 0.391113 10.0288C0.391113 10.2706 0.48769 10.5025 0.659599 10.6735C0.831507 10.8444 1.06466 10.9405 1.30778 10.9405H21.4744C21.7176 10.9405 21.9507 10.8444 22.1226 10.6735C22.2945 10.5025 22.3911 10.2706 22.3911 10.0288C22.3911 9.78698 22.2945 9.55508 22.1226 9.3841C21.9507 9.21312 21.7176 9.11707 21.4744 9.11707Z" fill="#8994A3"/>
</svg>
