<svg width="16" height="16" viewBox="0 0 16 16" fill="none" xmlns="http://www.w3.org/2000/svg">
<g clip-path="url(#clip0_2745_2717)">
<path d="M7.99968 5.33325C7.47226 5.33325 6.95669 5.48965 6.51816 5.78267C6.07962 6.07568 5.73783 6.49216 5.536 6.97943C5.33416 7.4667 5.28135 8.00288 5.38425 8.52016C5.48714 9.03744 5.74112 9.5126 6.11406 9.88554C6.487 10.2585 6.96215 10.5125 7.47944 10.6153C7.99672 10.7182 8.5329 10.6654 9.02017 10.4636C9.50744 10.2618 9.92391 9.91997 10.2169 9.48144C10.5099 9.04291 10.6663 8.52734 10.6663 7.99992C10.6663 7.29267 10.3854 6.6144 9.88529 6.1143C9.3852 5.6142 8.70692 5.33325 7.99968 5.33325ZM7.99968 9.33325C7.73597 9.33325 7.47818 9.25505 7.25892 9.10854C7.03965 8.96204 6.86875 8.7538 6.76784 8.51016C6.66692 8.26653 6.64052 7.99844 6.69196 7.7398C6.74341 7.48116 6.8704 7.24358 7.05687 7.05711C7.24334 6.87064 7.48091 6.74365 7.73956 6.6922C7.9982 6.64076 8.26629 6.66716 8.50992 6.76808C8.75356 6.869 8.96179 7.03989 9.1083 7.25916C9.25481 7.47842 9.33301 7.73621 9.33301 7.99992C9.33301 8.35354 9.19253 8.69268 8.94248 8.94273C8.69244 9.19278 8.3533 9.33325 7.99968 9.33325Z" fill="#1D2633"/>
<path d="M14.1955 9.26667L13.8995 9.096C14.0328 8.37096 14.0328 7.62771 13.8995 6.90267L14.1955 6.732C14.4232 6.60068 14.6227 6.42581 14.7827 6.21737C14.9428 6.00894 15.0602 5.77103 15.1283 5.51721C15.1964 5.2634 15.2138 4.99866 15.1796 4.73811C15.1454 4.47755 15.0602 4.22629 14.9289 3.99867C14.7976 3.77104 14.6227 3.57151 14.4142 3.41147C14.2058 3.25143 13.9679 3.134 13.7141 3.06591C13.4603 2.99781 13.1955 2.98037 12.935 3.01459C12.6744 3.04881 12.4232 3.13401 12.1955 3.26533L11.8989 3.43667C11.3386 2.95795 10.6947 2.58683 9.99954 2.342V2C9.99954 1.46957 9.78883 0.960859 9.41375 0.585786C9.03868 0.210714 8.52997 0 7.99954 0C7.46911 0 6.9604 0.210714 6.58533 0.585786C6.21025 0.960859 5.99954 1.46957 5.99954 2V2.342C5.30447 2.58771 4.66077 2.95973 4.10087 3.43933L3.80287 3.26667C3.34317 3.00145 2.79693 2.92971 2.28433 3.06724C1.77173 3.20477 1.33476 3.54029 1.06954 4C0.804324 4.45971 0.732588 5.00595 0.870115 5.51855C1.00764 6.03114 1.34317 6.46812 1.80287 6.73333L2.09887 6.904C1.96561 7.62904 1.96561 8.37229 2.09887 9.09733L1.80287 9.268C1.34317 9.53322 1.00764 9.97019 0.870115 10.4828C0.732588 10.9954 0.804324 11.5416 1.06954 12.0013C1.33476 12.461 1.77173 12.7966 2.28433 12.9341C2.79693 13.0716 3.34317 12.9999 3.80287 12.7347L4.09954 12.5633C4.66005 13.0421 5.30419 13.4132 5.99954 13.658V14C5.99954 14.5304 6.21025 15.0391 6.58533 15.4142C6.9604 15.7893 7.46911 16 7.99954 16C8.52997 16 9.03868 15.7893 9.41375 15.4142C9.78883 15.0391 9.99954 14.5304 9.99954 14V13.658C10.6946 13.4123 11.3383 13.0403 11.8982 12.5607L12.1962 12.7327C12.6559 12.9979 13.2022 13.0696 13.7148 12.9321C14.2274 12.7946 14.6643 12.459 14.9295 11.9993C15.1948 11.5396 15.2665 10.9934 15.129 10.4808C14.9914 9.96819 14.6559 9.53122 14.1962 9.266L14.1955 9.26667ZM12.4969 6.74933C12.7226 7.56738 12.7226 8.43129 12.4969 9.24933C12.4575 9.39171 12.4664 9.54316 12.5224 9.67987C12.5784 9.81659 12.6782 9.93084 12.8062 10.0047L13.5289 10.422C13.6821 10.5104 13.7939 10.6561 13.8397 10.8269C13.8855 10.9977 13.8616 11.1798 13.7732 11.333C13.6848 11.4862 13.5392 11.598 13.3683 11.6438C13.1975 11.6897 13.0154 11.6657 12.8622 11.5773L12.1382 11.1587C12.0101 11.0845 11.861 11.055 11.7144 11.075C11.5677 11.0949 11.4319 11.163 11.3282 11.2687C10.7348 11.8744 9.98726 12.3067 9.16621 12.5187C9.0229 12.5555 8.89592 12.639 8.80527 12.7559C8.71462 12.8729 8.66547 13.0167 8.66554 13.1647V14C8.66554 14.1768 8.5953 14.3464 8.47028 14.4714C8.34525 14.5964 8.17568 14.6667 7.99887 14.6667C7.82206 14.6667 7.65249 14.5964 7.52747 14.4714C7.40244 14.3464 7.33221 14.1768 7.33221 14V13.1653C7.33228 13.0174 7.28312 12.8736 7.19248 12.7566C7.10183 12.6397 6.97485 12.5562 6.83154 12.5193C6.01044 12.3065 5.26309 11.8733 4.67021 11.2667C4.56656 11.161 4.4307 11.0929 4.28404 11.073C4.13739 11.053 3.98828 11.0825 3.86021 11.1567L3.13754 11.5747C3.06169 11.6191 2.9778 11.6482 2.89069 11.6601C2.80358 11.672 2.71498 11.6665 2.62998 11.6441C2.54498 11.6216 2.46526 11.5825 2.39542 11.5291C2.32558 11.4757 2.26699 11.409 2.22303 11.3329C2.17907 11.2567 2.1506 11.1727 2.13927 11.0855C2.12794 10.9983 2.13396 10.9097 2.157 10.8249C2.18004 10.74 2.21963 10.6606 2.2735 10.5911C2.32736 10.5216 2.39444 10.4635 2.47087 10.42L3.19354 10.0027C3.32151 9.92884 3.42132 9.81459 3.47731 9.67787C3.5333 9.54116 3.54229 9.38972 3.50287 9.24733C3.27711 8.42929 3.27711 7.56538 3.50287 6.74733C3.54158 6.60525 3.53216 6.45436 3.47608 6.31819C3.42 6.18203 3.32042 6.06827 3.19287 5.99467L2.47021 5.57733C2.317 5.48893 2.20519 5.34328 2.15937 5.17244C2.11354 5.00159 2.13747 4.81954 2.22587 4.66633C2.31428 4.51313 2.45992 4.40131 2.63077 4.35549C2.80162 4.30967 2.98367 4.33359 3.13687 4.422L3.86087 4.84067C3.98859 4.91501 4.13739 4.94481 4.28389 4.92538C4.43039 4.90595 4.56628 4.8384 4.67021 4.73333C5.2636 4.12756 6.01116 3.69535 6.83221 3.48333C6.97596 3.44638 7.10327 3.3625 7.19396 3.245C7.28466 3.1275 7.33354 2.98309 7.33287 2.83467V2C7.33287 1.82319 7.40311 1.65362 7.52814 1.5286C7.65316 1.40357 7.82273 1.33333 7.99954 1.33333C8.17635 1.33333 8.34592 1.40357 8.47094 1.5286C8.59597 1.65362 8.66621 1.82319 8.66621 2V2.83467C8.66613 2.98264 8.71529 3.12643 8.80594 3.24339C8.89658 3.36035 9.02356 3.44382 9.16687 3.48067C9.98821 3.69343 10.7358 4.12659 11.3289 4.73333C11.4325 4.83898 11.5684 4.90713 11.715 4.92704C11.8617 4.94696 12.0108 4.91751 12.1389 4.84333L12.8615 4.42533C12.9374 4.38087 13.0213 4.35185 13.1084 4.33993C13.1955 4.32802 13.2841 4.33346 13.3691 4.35593C13.4541 4.37841 13.5338 4.41747 13.6037 4.47088C13.6735 4.52428 13.7321 4.59097 13.7761 4.66712C13.82 4.74326 13.8485 4.82734 13.8598 4.91453C13.8711 5.00171 13.8651 5.09028 13.8421 5.17513C13.819 5.25998 13.7795 5.33943 13.7256 5.40892C13.6717 5.4784 13.6046 5.53655 13.5282 5.58L12.8055 5.99733C12.6782 6.07114 12.5789 6.18498 12.5231 6.32113C12.4673 6.45727 12.458 6.60807 12.4969 6.75V6.74933Z" fill="#1D2633"/>
</g>
<defs>
<clipPath id="clip0_2745_2717">
<rect width="16" height="16" fill="white"/>
</clipPath>
</defs>
</svg>
