<svg width="10" height="8" viewBox="0 0 10 8" fill="none" xmlns="http://www.w3.org/2000/svg">
<path d="M2.22947 3.97985L2.84836 6.09395C3.19391 6.76443 3.62769 6.9396 4.70567 7C5.56274 6.97946 6.06008 6.8804 6.48461 6.51919C6.774 6.27275 6.90481 5.90127 6.96837 5.5316L7.18063 4.28186M8.72818 3.0738V6.09395M1.04166 2.73132C2.02091 1.93581 2.89341 1.50876 4.7032 1.03882C4.90737 0.986054 5.12217 0.987096 5.3258 1.04184C6.92764 1.47312 7.79274 1.85608 8.95155 2.70776C9.00091 2.744 9.01572 2.81165 8.98117 2.86179C8.60292 3.40662 7.75819 3.84817 5.68615 4.63462C5.25457 4.79718 4.77627 4.79459 4.34655 4.62737C2.14 3.76964 1.12557 3.31058 1.00217 2.834C0.998155 2.81498 0.999737 2.79524 1.00673 2.77706C1.01372 2.75889 1.02583 2.74302 1.04166 2.73132Z" stroke="#45AEF5" stroke-width="0.7" stroke-linecap="round" stroke-linejoin="round"/>
</svg>
