<svg width="13" height="14" viewBox="0 0 13 14" fill="none" xmlns="http://www.w3.org/2000/svg">
<path d="M6.5 0L0 2.54545V6.36364C0 9.89545 2.77333 13.1982 6.5 14C10.2267 13.1982 13 9.89545 13 6.36364V2.54545L6.5 0ZM11.5556 6.36364C11.5556 7.54091 11.1872 8.68636 10.5589 9.67909L9.51167 8.75636C9.97055 8.14462 10.1752 7.41187 10.091 6.68234C10.0067 5.95282 9.63876 5.27141 9.04944 4.75364C8.37198 4.1576 7.45375 3.82283 6.49639 3.82283C5.53903 3.82283 4.6208 4.1576 3.94333 4.75364C3.26688 5.35056 2.88694 6.15963 2.88694 7.00318C2.88694 7.84673 3.26688 8.6558 3.94333 9.25273C4.53181 9.7707 5.30499 10.094 6.13252 10.1682C6.96004 10.2424 7.79129 10.0629 8.48611 9.66L9.72833 10.7545C8.86889 11.6582 7.75667 12.3518 6.5 12.6891C3.59667 11.8936 1.44444 9.24 1.44444 6.36364V3.37273L6.5 1.39364L11.5556 3.37273V6.36364ZM6.5 8.90909C5.30111 8.90909 4.33333 8.05636 4.33333 7C4.33333 5.94364 5.30111 5.09091 6.5 5.09091C7.69889 5.09091 8.66667 5.94364 8.66667 7C8.66667 8.05636 7.69889 8.90909 6.5 8.90909Z" fill="#10161F" fill-opacity="0.75"/>
</svg>
