<svg width="23" height="23" viewBox="0 0 23 23" fill="none" xmlns="http://www.w3.org/2000/svg">
<path d="M18.3395 22.1004C18.4263 22.3796 18.1031 22.6054 17.8708 22.4278L11.6827 17.6972C11.5751 17.615 11.4258 17.615 11.3183 17.6972L5.13011 22.4278C4.8978 22.6054 4.57461 22.3796 4.66144 22.1004L7.05256 14.4119C7.09003 14.2914 7.04809 14.1603 6.94761 14.0839L0.70901 9.34259C0.480243 9.16873 0.603199 8.80374 0.890536 8.80374H8.56293C8.69455 8.80374 8.8108 8.71795 8.8496 8.59219L11.2138 0.929161C11.3008 0.647085 11.7001 0.647087 11.7871 0.929163L14.1514 8.59219C14.1902 8.71795 14.3064 8.80374 14.438 8.80374H22.1096C22.3969 8.80374 22.5198 9.16871 22.2911 9.34258L16.0533 14.0839C15.9529 14.1603 15.9109 14.2914 15.9484 14.4119L18.3395 22.1004Z" fill="#45AEF5"/>
</svg>
