<svg width="10" height="10" viewBox="0 0 10 10" fill="none" xmlns="http://www.w3.org/2000/svg">
<path d="M7.51186 9.10042C7.5987 9.37965 7.2755 9.60544 7.04319 9.42785L4.8787 7.77316C4.77114 7.69094 4.62185 7.69094 4.5143 7.77316L2.3498 9.42785C2.11749 9.60544 1.79429 9.37965 1.88113 9.10042L2.72733 6.37949C2.76481 6.25899 2.72286 6.12791 2.62239 6.05155L0.4053 4.36656C0.176533 4.1927 0.299488 3.82771 0.586825 3.82771H3.29417C3.42578 3.82771 3.54203 3.74193 3.58083 3.61616L4.40983 0.929163C4.49686 0.647087 4.89614 0.647087 4.98316 0.929163L5.81216 3.61616C5.85096 3.74193 5.96721 3.82771 6.09883 3.82771H8.80585C9.09318 3.82771 9.21614 4.19268 8.98739 4.36655L6.77058 6.05155C6.67012 6.12791 6.62818 6.25898 6.66566 6.37948L7.51186 9.10042Z" fill="#E58B3D"/>
</svg>
