<svg width="13" height="13" viewBox="0 0 13 13" fill="none" xmlns="http://www.w3.org/2000/svg">
<path d="M6.5 0C2.91015 0 0 2.91015 0 6.5C0 10.0899 2.91015 13 6.5 13C10.0899 13 13 10.0899 13 6.5C12.9961 2.91175 10.0883 0.00388477 6.5 0ZM8.66666 7.90128C8.88677 8.10387 8.90099 8.44655 8.6984 8.66666C8.4958 8.88677 8.15313 8.90099 7.93302 8.6984C7.922 8.68827 7.91144 8.67768 7.90128 8.66666L6.5 7.26591L5.09925 8.66666C4.88406 8.87448 4.54116 8.86851 4.33334 8.65333C4.13062 8.44342 4.13062 8.11065 4.33334 7.90075L5.73409 6.5L4.33334 5.09925C4.12552 4.88406 4.13149 4.54116 4.34667 4.33334C4.55658 4.13062 4.88935 4.13062 5.09925 4.33334L6.5 5.73409L7.90128 4.33334C8.10387 4.11323 8.44655 4.09901 8.66666 4.3016C8.88677 4.5042 8.90099 4.84687 8.6984 5.06698C8.68827 5.078 8.67768 5.08856 8.66666 5.09872L7.26591 6.5L8.66666 7.90128Z" fill="#C6C9CC"/>
</svg>
