<svg width="16" height="16" viewBox="0 0 16 16" fill="none" xmlns="http://www.w3.org/2000/svg">
<path d="M8 0C6.41775 0 4.87103 0.469192 3.55544 1.34824C2.23985 2.22729 1.21447 3.47672 0.608967 4.93853C0.00346629 6.40034 -0.15496 8.00887 0.153721 9.56072C0.462403 11.1126 1.22433 12.538 2.34315 13.6569C3.46197 14.7757 4.88743 15.5376 6.43928 15.8463C7.99113 16.155 9.59966 15.9965 11.0615 15.391C12.5233 14.7855 13.7727 13.7602 14.6518 12.4446C15.5308 11.129 16 9.58225 16 8C15.9977 5.87897 15.1541 3.84547 13.6543 2.34568C12.1545 0.845885 10.121 0.00229405 8 0ZM8 14.6667C6.68146 14.6667 5.39253 14.2757 4.2962 13.5431C3.19987 12.8106 2.34539 11.7694 1.84081 10.5512C1.33622 9.33305 1.2042 7.9926 1.46143 6.6994C1.71867 5.40619 2.35361 4.2183 3.28596 3.28595C4.21831 2.3536 5.40619 1.71867 6.6994 1.46143C7.99261 1.2042 9.33305 1.33622 10.5512 1.8408C11.7694 2.34539 12.8106 3.19987 13.5431 4.2962C14.2757 5.39253 14.6667 6.68146 14.6667 8C14.6647 9.76751 13.9617 11.4621 12.7119 12.7119C11.4621 13.9617 9.76752 14.6647 8 14.6667Z" fill="#C6C9CC"/>
<path d="M8.66683 12.0002C8.66683 11.632 8.36835 11.3335 8.00016 11.3335C7.63197 11.3335 7.3335 11.632 7.3335 12.0002C7.3335 12.3684 7.63197 12.6668 8.00016 12.6668C8.36835 12.6668 8.66683 12.3684 8.66683 12.0002Z" fill="#C6C9CC"/>
<path d="M8.47816 3.37571C8.09371 3.30566 7.69857 3.32097 7.32069 3.42054C6.94281 3.52011 6.59144 3.70151 6.29143 3.95191C5.99141 4.20231 5.7501 4.51559 5.58457 4.86958C5.41903 5.22356 5.33332 5.6096 5.3335 6.00038C5.3335 6.17719 5.40373 6.34676 5.52876 6.47178C5.65378 6.5968 5.82335 6.66704 6.00016 6.66704C6.17697 6.66704 6.34654 6.5968 6.47157 6.47178C6.59659 6.34676 6.66683 6.17719 6.66683 6.00038C6.66666 5.80423 6.70977 5.61046 6.79309 5.43288C6.87641 5.25531 6.99788 5.0983 7.14884 4.97306C7.2998 4.84782 7.47654 4.75743 7.66645 4.70834C7.85635 4.65925 8.05475 4.65266 8.2475 4.68904C8.51086 4.74017 8.753 4.86863 8.94299 5.05804C9.13299 5.24744 9.26222 5.48918 9.31416 5.75238C9.36663 6.02864 9.3304 6.31443 9.21067 6.56887C9.09093 6.82331 8.89381 7.03338 8.6475 7.16904C8.23961 7.40535 7.90255 7.74672 7.67145 8.15758C7.44034 8.56843 7.32364 9.03375 7.3335 9.50504V10.0004C7.3335 10.1772 7.40373 10.3468 7.52876 10.4718C7.65378 10.5968 7.82335 10.667 8.00016 10.667C8.17697 10.667 8.34654 10.5968 8.47157 10.4718C8.59659 10.3468 8.66683 10.1772 8.66683 10.0004V9.50504C8.65846 9.27305 8.71136 9.04295 8.82021 8.8379C8.92905 8.63286 9.08999 8.46011 9.28683 8.33704C9.76984 8.07176 10.1588 7.66335 10.4002 7.16798C10.6416 6.67261 10.7237 6.11461 10.635 5.57073C10.5464 5.02684 10.2914 4.52377 9.90516 4.13071C9.51893 3.73764 9.02041 3.47389 8.47816 3.37571Z" fill="#C6C9CC"/>
</svg>
