<svg width="22" height="16" viewBox="0 0 22 16" fill="none" xmlns="http://www.w3.org/2000/svg">
<path d="M0.916667 1.82342H21.0833C21.3264 1.82342 21.5596 1.72737 21.7315 1.55639C21.9034 1.38541 22 1.15351 22 0.911712C22 0.669911 21.9034 0.438013 21.7315 0.267034C21.5596 0.0960552 21.3264 0 21.0833 0H0.916667C0.673552 0 0.440394 0.0960552 0.268485 0.267034C0.0965771 0.438013 0 0.669911 0 0.911712C0 1.15351 0.0965771 1.38541 0.268485 1.55639C0.440394 1.72737 0.673552 1.82342 0.916667 1.82342Z" fill="#8994A3"/>
<path d="M21.083 4.55847H8.24967C8.00656 4.55847 7.7734 4.65453 7.60149 4.82551C7.42959 4.99649 7.33301 5.22838 7.33301 5.47018C7.33301 5.71198 7.42959 5.94388 7.60149 6.11486C7.7734 6.28584 8.00656 6.3819 8.24967 6.3819H21.083C21.3261 6.3819 21.5593 6.28584 21.7312 6.11486C21.9031 5.94388 21.9997 5.71198 21.9997 5.47018C21.9997 5.22838 21.9031 4.99649 21.7312 4.82551C21.5593 4.65453 21.3261 4.55847 21.083 4.55847Z" fill="#8994A3"/>
<path d="M21.083 13.6758H8.24967C8.00656 13.6758 7.7734 13.7718 7.60149 13.9428C7.42959 14.1138 7.33301 14.3457 7.33301 14.5875C7.33301 14.8293 7.42959 15.0612 7.60149 15.2322C7.7734 15.4032 8.00656 15.4992 8.24967 15.4992H21.083C21.3261 15.4992 21.5593 15.4032 21.7312 15.2322C21.9031 15.0612 21.9997 14.8293 21.9997 14.5875C21.9997 14.3457 21.9031 14.1138 21.7312 13.9428C21.5593 13.7718 21.3261 13.6758 21.083 13.6758Z" fill="#8994A3"/>
<path d="M21.0833 9.11707H0.916667C0.673552 9.11707 0.440394 9.21312 0.268485 9.3841C0.0965771 9.55508 0 9.78698 0 10.0288C0 10.2706 0.0965771 10.5025 0.268485 10.6735C0.440394 10.8444 0.673552 10.9405 0.916667 10.9405H21.0833C21.3264 10.9405 21.5596 10.8444 21.7315 10.6735C21.9034 10.5025 22 10.2706 22 10.0288C22 9.78698 21.9034 9.55508 21.7315 9.3841C21.5596 9.21312 21.3264 9.11707 21.0833 9.11707Z" fill="#8994A3"/>
</svg>
