<svg width="19" height="19" viewBox="0 0 19 19" fill="none" xmlns="http://www.w3.org/2000/svg">
<path d="M3.16665 0H5.54165C7.29054 0 8.70831 1.41776 8.70831 3.16665V5.54165C8.70831 7.29054 7.29054 8.70831 5.54165 8.70831H3.16665C1.41776 8.70835 0 7.29058 0 5.54165V3.16665C0 1.41776 1.41776 0 3.16665 0Z" fill="#F2F2F3"/>
<path d="M13.4577 0H15.8327C17.5816 0 18.9993 1.41776 18.9993 3.16665V5.54165C18.9993 7.29054 17.5816 8.70831 15.8327 8.70831H13.4577C11.7088 8.70831 10.291 7.29054 10.291 5.54165V3.16665C10.291 1.41776 11.7087 0 13.4577 0Z" fill="#F2F2F3"/>
<path d="M3.16665 10.292H5.54165C7.29054 10.292 8.70831 11.7098 8.70831 13.4586V15.8336C8.70831 17.5825 7.29054 19.0003 5.54165 19.0003H3.16665C1.41776 19.0003 0 17.5826 0 15.8337V13.4587C0 11.7098 1.41776 10.292 3.16665 10.292Z" fill="#F2F2F3"/>
<path d="M13.4577 10.292H15.8327C17.5816 10.292 18.9993 11.7098 18.9993 13.4586V15.8336C18.9993 17.5826 17.5816 19.0003 15.8327 19.0003H13.4577C11.7088 19.0003 10.291 17.5826 10.291 15.8337V13.4587C10.291 11.7098 11.7087 10.292 13.4577 10.292Z" fill="#F2F2F3"/>
</svg>
