<svg width="15" height="20" viewBox="0 0 15 20" fill="none" xmlns="http://www.w3.org/2000/svg">
<path d="M2.5 20H4.275C4.64795 19.9965 5.00916 19.8692 5.30192 19.6381C5.59468 19.407 5.80241 19.0853 5.8925 18.7233C5.98898 18.371 6.19856 18.0601 6.48901 17.8385C6.77945 17.6168 7.13467 17.4968 7.5 17.4968C7.86533 17.4968 8.22055 17.6168 8.51099 17.8385C8.80144 18.0601 9.01102 18.371 9.1075 18.7233C9.19759 19.0853 9.40532 19.407 9.69808 19.6381C9.99084 19.8692 10.3521 19.9965 10.725 20H12.5C13.163 20 13.7989 19.7366 14.2678 19.2678C14.7366 18.7989 15 18.163 15 17.5V14.1667H11.6667C11.4457 14.1667 11.2337 14.0789 11.0774 13.9226C10.9211 13.7663 10.8333 13.5543 10.8333 13.3333C10.8333 13.1123 10.9211 12.9004 11.0774 12.7441C11.2337 12.5878 11.4457 12.5 11.6667 12.5H15V4.16667C14.9987 3.062 14.5593 2.00296 13.7782 1.22185C12.997 0.440735 11.938 0.00132321 10.8333 0L10.725 0C10.3521 0.00354318 9.99084 0.130844 9.69808 0.361916C9.40532 0.592988 9.19759 0.914744 9.1075 1.27667C9.01102 1.62903 8.80144 1.93994 8.51099 2.16155C8.22055 2.38316 7.86533 2.5032 7.5 2.5032C7.13467 2.5032 6.77945 2.38316 6.48901 2.16155C6.19856 1.93994 5.98898 1.62903 5.8925 1.27667C5.80241 0.914744 5.59468 0.592988 5.30192 0.361916C5.00916 0.130844 4.64795 0.00354318 4.275 0L4.16667 0C3.062 0.00132321 2.00296 0.440735 1.22185 1.22185C0.440735 2.00296 0.00132321 3.062 0 4.16667V12.5H3.33333C3.55435 12.5 3.76631 12.5878 3.92259 12.7441C4.07887 12.9004 4.16667 13.1123 4.16667 13.3333C4.16667 13.5543 4.07887 13.7663 3.92259 13.9226C3.76631 14.0789 3.55435 14.1667 3.33333 14.1667H0V17.5C0 18.163 0.263392 18.7989 0.732233 19.2678C1.20107 19.7366 1.83696 20 2.5 20ZM6.66667 12.5H8.33333C8.55435 12.5 8.76631 12.5878 8.92259 12.7441C9.07887 12.9004 9.16667 13.1123 9.16667 13.3333C9.16667 13.5543 9.07887 13.7663 8.92259 13.9226C8.76631 14.0789 8.55435 14.1667 8.33333 14.1667H6.66667C6.44565 14.1667 6.23369 14.0789 6.07741 13.9226C5.92113 13.7663 5.83333 13.5543 5.83333 13.3333C5.83333 13.1123 5.92113 12.9004 6.07741 12.7441C6.23369 12.5878 6.44565 12.5 6.66667 12.5Z" fill="#F2F2F3"/>
</svg>
