<svg width="9" height="6" viewBox="0 0 9 6" fill="none" xmlns="http://www.w3.org/2000/svg">
<path d="M8.97413 2.8785C8.961 2.84888 8.64338 2.14425 7.93725 1.43813C6.99638 0.49725 5.808 0 4.5 0C3.192 0 2.00362 0.49725 1.06275 1.43813C0.356622 2.14425 0.0374964 2.85 0.0258714 2.8785C0.00881385 2.91687 0 2.95839 0 3.00038C0 3.04236 0.00881385 3.08388 0.0258714 3.12225C0.0389964 3.15188 0.356622 3.85613 1.06275 4.56225C2.00362 5.50275 3.192 6 4.5 6C5.808 6 6.99638 5.50275 7.93725 4.56225C8.64338 3.85613 8.961 3.15188 8.97413 3.12225C8.99119 3.08388 9 3.04236 9 3.00038C9 2.95839 8.99119 2.91687 8.97413 2.8785ZM4.5 5.4C3.34575 5.4 2.33737 4.98038 1.50262 4.15313C1.16013 3.8125 0.868731 3.4241 0.637497 3C0.868642 2.57584 1.16005 2.18743 1.50262 1.84688C2.33737 1.01963 3.34575 0.6 4.5 0.6C5.65425 0.6 6.66263 1.01963 7.49738 1.84688C7.84054 2.18737 8.13257 2.57578 8.36438 3C8.094 3.50475 6.91613 5.4 4.5 5.4ZM4.5 1.2C4.14399 1.2 3.79598 1.30557 3.49997 1.50335C3.20396 1.70114 2.97325 1.98226 2.83702 2.31117C2.70078 2.64008 2.66513 3.002 2.73458 3.35116C2.80404 3.70033 2.97547 4.02106 3.22721 4.27279C3.47894 4.52453 3.79967 4.69596 4.14884 4.76541C4.498 4.83487 4.85992 4.79922 5.18883 4.66298C5.51774 4.52675 5.79886 4.29604 5.99665 4.00003C6.19443 3.70402 6.3 3.35601 6.3 3C6.2995 2.52276 6.1097 2.06521 5.77224 1.72776C5.43479 1.3903 4.97724 1.2005 4.5 1.2ZM4.5 4.2C4.26266 4.2 4.03065 4.12962 3.83332 3.99776C3.63598 3.86591 3.48217 3.67849 3.39134 3.45922C3.30052 3.23995 3.27675 2.99867 3.32306 2.76589C3.36936 2.53311 3.48365 2.31929 3.65147 2.15147C3.81929 1.98365 4.03311 1.86936 4.26589 1.82306C4.49867 1.77676 4.73995 1.80052 4.95922 1.89134C5.17849 1.98217 5.36591 2.13598 5.49776 2.33332C5.62962 2.53065 5.7 2.76266 5.7 3C5.7 3.31826 5.57357 3.62348 5.34853 3.84853C5.12348 4.07357 4.81826 4.2 4.5 4.2Z" fill="#45AEF5"/>
</svg>
