<svg width="17" height="17" viewBox="0 0 17 17" fill="none" xmlns="http://www.w3.org/2000/svg">
<path d="M10.8691 1.02938C11.1032 0.975586 11.3481 0.996005 11.5701 1.0878C11.792 1.1796 11.9798 1.33823 12.1075 1.54165L13.2568 3.3768C13.3495 3.52461 13.4744 3.64953 13.6222 3.74221L15.4572 4.89164C15.661 5.01922 15.82 5.20719 15.912 5.42937C16.004 5.65155 16.0245 5.8969 15.9705 6.13126L15.4849 8.24047C15.4457 8.41093 15.4457 8.58806 15.4849 8.75852L15.9705 10.8689C16.024 11.1029 16.0032 11.3477 15.9112 11.5695C15.8192 11.7912 15.6606 11.9788 15.4572 12.1062L13.6222 13.2568C13.4742 13.3492 13.3492 13.4742 13.2568 13.6222L12.1075 15.4573C11.98 15.661 11.7922 15.8198 11.5703 15.9118C11.3483 16.0039 11.1033 16.0244 10.8691 15.9708L8.75893 15.4851C8.58885 15.4461 8.41216 15.4461 8.24208 15.4851L6.1319 15.9708C5.89774 16.0244 5.65266 16.0039 5.43073 15.9118C5.20881 15.8198 5.02105 15.661 4.89355 15.4573L3.74422 13.6222C3.65119 13.4743 3.52588 13.3493 3.37769 13.2568L1.54386 12.1073C1.34024 11.9798 1.1814 11.7921 1.08939 11.5701C0.997388 11.3482 0.976797 11.1031 1.03048 10.8689L1.51495 8.75852C1.55413 8.58806 1.55413 8.41093 1.51495 8.24047L1.02932 6.13126C0.975491 5.89678 0.996127 5.65135 1.08836 5.42915C1.18058 5.20696 1.33981 5.01906 1.54386 4.89164L3.37769 3.74221C3.52591 3.64967 3.65122 3.52474 3.74422 3.3768L4.89355 1.54165C5.02114 1.33845 5.20878 1.17997 5.43045 1.08818C5.65213 0.996395 5.89687 0.975846 6.13075 1.02938L8.24208 1.5139C8.41216 1.5529 8.58885 1.5529 8.75893 1.5139L10.8691 1.02938Z" stroke="#10161F" stroke-opacity="0.75" stroke-width="1.4"/>
<path d="M5.62695 9.11935L7.97994 11.3731L11.3736 5.62598" stroke="#10161F" stroke-opacity="0.75" stroke-width="1.4" stroke-linecap="round" stroke-linejoin="round"/>
</svg>
