<svg width="8" height="8" viewBox="0 0 8 8" fill="none" xmlns="http://www.w3.org/2000/svg">
<path d="M4 1.5L5 3L7 3.5L5.5 5V5.5L6 7L4 6L2 7L2.5 5L1 3.5L3 3L4 1.5Z" fill="#6760D7" fill-opacity="0.2"/>
<path d="M2.43591 6.36271C2.39782 6.53637 2.58831 6.66969 2.73843 6.57442L3.8924 5.84209C3.95817 5.80035 4.0422 5.8006 4.10773 5.84273L5.26107 6.5843C5.41098 6.68069 5.60258 6.54765 5.56465 6.3735L5.2554 4.95367C5.24019 4.88387 5.26338 4.81126 5.31621 4.76318L6.3646 3.80919C6.49311 3.69226 6.42164 3.47835 6.24865 3.46214L4.88875 3.33474C4.81439 3.32777 4.7501 3.27996 4.72205 3.21074L4.18493 1.88564C4.11754 1.71937 3.88224 1.71907 3.81442 1.88516L3.27864 3.19727C3.25047 3.26624 3.18631 3.31384 3.11213 3.32079L1.74875 3.44851C1.57624 3.46467 1.50449 3.6776 1.63204 3.79487L2.68508 4.76308C2.73748 4.81125 2.76032 4.88363 2.74507 4.95315L2.43591 6.36271ZM1.93271 7.74173C1.7824 7.83716 1.5917 7.70339 1.63025 7.52957L2.15712 5.15443C2.17263 5.08449 2.14955 5.01158 2.0966 4.96331L0.335502 3.35803C0.206971 3.24087 0.278899 3.02681 0.452099 3.01104L2.75285 2.80155C2.82754 2.79475 2.89214 2.74675 2.92019 2.6772L3.81481 0.459697C3.88214 0.292806 4.11841 0.292797 4.18575 0.459684L5.08033 2.67666C5.10839 2.7462 5.17299 2.7942 5.24766 2.801L7.54791 3.01048C7.72111 3.02625 7.79304 3.2403 7.6645 3.35746L5.90342 4.96274C5.85046 5.01102 5.82738 5.08394 5.84291 5.1539L6.37019 7.52902C6.40878 7.70284 6.2181 7.83664 6.06778 7.74123L4.10745 6.4971C4.04203 6.45557 3.95851 6.45558 3.89309 6.49711L1.93271 7.74173Z" fill="#6760D7"/>
</svg>
