<svg width="13" height="13" viewBox="0 0 13 13" fill="none" xmlns="http://www.w3.org/2000/svg">
<path d="M10.2442 12.1004C10.331 12.3796 10.0078 12.6054 9.77551 12.4278L6.68247 10.0633C6.57492 9.9811 6.42562 9.9811 6.31807 10.0633L3.22503 12.4278C2.99272 12.6054 2.66953 12.3796 2.75637 12.1004L3.95908 8.23312C3.99656 8.11261 3.95462 7.98154 3.85414 7.90518L0.709012 5.51488C0.480245 5.34101 0.603199 4.97603 0.890536 4.97603H4.74366C4.87528 4.97603 4.99152 4.89024 5.03033 4.76447L6.2136 0.929162C6.30063 0.647086 6.69991 0.647087 6.78694 0.929163L7.97021 4.76447C8.00901 4.89024 8.12526 4.97603 8.25688 4.97603H12.1096C12.3969 4.97603 12.5198 5.34099 12.2911 5.51487L9.14638 7.90518C9.04591 7.98154 9.00398 8.11261 9.04145 8.2331L10.2442 12.1004Z" fill="#293342"/>
</svg>
