<svg width="17" height="17" viewBox="0 0 17 17" fill="none" xmlns="http://www.w3.org/2000/svg">
<path d="M2.83332 0H4.95832C6.52312 0 7.79164 1.26853 7.79164 2.83332V4.95832C7.79164 6.52312 6.52312 7.79164 4.95832 7.79164H2.83332C1.26853 7.79168 0 6.52315 0 4.95832V2.83332C0 1.26853 1.26853 0 2.83332 0Z" fill="#6760D7"/>
<path d="M12.0418 0H14.1668C15.7316 0 17.0001 1.26853 17.0001 2.83332V4.95832C17.0001 6.52312 15.7316 7.79164 14.1668 7.79164H12.0418C10.477 7.79164 9.2085 6.52312 9.2085 4.95832V2.83332C9.20846 1.26853 10.477 0 12.0418 0Z" fill="#6760D7"/>
<path d="M2.83332 9.2085H4.95832C6.52312 9.2085 7.79164 10.477 7.79164 12.0418V14.1668C7.79164 15.7316 6.52312 17.0001 4.95832 17.0001H2.83332C1.26853 17.0002 0 15.7316 0 14.1669V12.0419C0 10.477 1.26853 9.2085 2.83332 9.2085Z" fill="#6760D7"/>
<path d="M12.0418 9.2085H14.1668C15.7316 9.2085 17.0001 10.477 17.0001 12.0418V14.1668C17.0001 15.7316 15.7316 17.0002 14.1668 17.0002H12.0418C10.477 17.0002 9.2085 15.7316 9.2085 14.1669V12.0419C9.20846 10.477 10.477 9.2085 12.0418 9.2085Z" fill="#6760D7"/>
</svg>
