<svg width="100" height="100" viewBox="0 0 100 100" fill="none" xmlns="http://www.w3.org/2000/svg">
<rect x="1" y="1" width="98" height="98" rx="19" fill="#DDD5F4" stroke="#EBE5FD" stroke-width="2"/>
<path d="M58.25 39.5H57.615L54.885 35.96C54.5332 35.5073 54.0829 35.1405 53.5683 34.8876C53.0538 34.6346 52.4884 34.5021 51.915 34.5H47.085C46.5116 34.5021 45.9462 34.6346 45.4317 34.8876C44.9171 35.1405 44.4668 35.5073 44.115 35.96L41.385 39.5H40.75C39.093 39.502 37.5044 40.1611 36.3328 41.3328C35.1611 42.5044 34.502 44.093 34.5 45.75V58.25C34.502 59.907 35.1611 61.4956 36.3328 62.6672C37.5044 63.8389 39.093 64.498 40.75 64.5H58.25C59.907 64.498 61.4956 63.8389 62.6672 62.6672C63.8389 61.4956 64.498 59.907 64.5 58.25V45.75C64.498 44.093 63.8389 42.5044 62.6672 41.3328C61.4956 40.1611 59.907 39.502 58.25 39.5ZM46.095 37.4875C46.2121 37.3363 46.3621 37.2138 46.5337 37.1294C46.7052 37.0449 46.8938 37.0006 47.085 37H51.915C52.1062 37.0008 52.2947 37.0451 52.4662 37.1296C52.6377 37.2141 52.7878 37.3365 52.905 37.4875L54.4575 39.5H44.5425L46.095 37.4875ZM62 58.25C62 59.2446 61.6049 60.1984 60.9017 60.9017C60.1984 61.6049 59.2446 62 58.25 62H40.75C39.7554 62 38.8016 61.6049 38.0983 60.9017C37.3951 60.1984 37 59.2446 37 58.25V45.75C37 44.7554 37.3951 43.8016 38.0983 43.0984C38.8016 42.3951 39.7554 42 40.75 42H58.25C59.2446 42 60.1984 42.3951 60.9017 43.0984C61.6049 43.8016 62 44.7554 62 45.75V58.25Z" fill="#10161F"/>
<path d="M49.5 44.4993C48.0166 44.4993 46.5666 44.9391 45.3332 45.7632C44.0999 46.5874 43.1386 47.7587 42.5709 49.1291C42.0032 50.4996 41.8547 52.0076 42.1441 53.4624C42.4335 54.9173 43.1478 56.2537 44.1967 57.3026C45.2456 58.3515 46.582 59.0658 48.0368 59.3552C49.4917 59.6445 50.9997 59.496 52.3701 58.9284C53.7406 58.3607 54.9119 57.3994 55.736 56.166C56.5601 54.9327 57 53.4826 57 51.9993C56.998 50.0108 56.2072 48.1043 54.8011 46.6982C53.395 45.2921 51.4885 44.5013 49.5 44.4993ZM49.5 56.9993C48.5111 56.9993 47.5444 56.706 46.7222 56.1566C45.8999 55.6072 45.259 54.8263 44.8806 53.9127C44.5022 52.9991 44.4032 51.9937 44.5961 51.0238C44.789 50.0539 45.2652 49.163 45.9645 48.4637C46.6637 47.7645 47.5546 47.2883 48.5246 47.0953C49.4945 46.9024 50.4998 47.0014 51.4134 47.3799C52.3271 47.7583 53.1079 48.3992 53.6574 49.2214C54.2068 50.0437 54.5 51.0104 54.5 51.9993C54.5 53.3254 53.9732 54.5971 53.0355 55.5348C52.0979 56.4725 50.8261 56.9993 49.5 56.9993Z" fill="#10161F"/>
</svg>
