<svg width="19" height="19" viewBox="0 0 19 19" fill="none" xmlns="http://www.w3.org/2000/svg">
<path d="M17.575 1.00414C17.1237 0.593352 16.5942 0.297366 16.025 0.137671C15.4557 -0.0220233 14.861 -0.041418 14.284 0.0808955L12.8875 0.453992C12.1588 0.599685 11.4999 1.01954 11.0256 1.64049C10.5513 2.26144 10.2916 3.04417 10.2917 3.85245V16.4155C10.2917 16.8735 9.95799 17.2734 9.5 17.2734V17.2734C9.04201 17.2734 8.70833 16.8735 8.70833 16.4155V3.85245C8.71096 3.05163 8.45725 2.27492 7.991 1.65637C7.52474 1.03782 6.87518 0.616229 6.15442 0.464356L4.67083 0.0705317C4.10017 -0.043389 3.51352 -0.0190718 2.95242 0.141762C2.39133 0.302596 1.86949 0.596014 1.42386 1.00125C0.978236 1.40648 0.619706 1.91362 0.373652 2.48677C0.127599 3.05992 3.86432e-05 3.68507 0 4.31796L0 13.6393C4.54859e-05 14.6505 0.325356 15.6296 0.919231 16.4059C1.5131 17.1823 2.33788 17.7066 3.24979 17.8876L8.22621 18.8748C9.06851 19.0417 9.93149 19.0417 10.7738 18.8748L15.7542 17.8876C16.6654 17.7057 17.4892 17.181 18.0823 16.4047C18.6754 15.6285 19.0001 14.6499 19 13.6393V4.31796C19.0004 3.68529 18.8728 3.06031 18.6265 2.48754C18.3802 1.91476 18.0212 1.40827 17.575 1.00414Z" fill="#F2F2F3"/>
</svg>
