<svg width="15" height="15" viewBox="0 0 15 15" fill="none" xmlns="http://www.w3.org/2000/svg">
<g clip-path="url(#clip0_1850_51)">
<path d="M13.125 3.75H3.125C2.58812 3.75 2.08 3.5175 1.72813 3.12563C2.07188 2.74188 2.57125 2.5 3.125 2.5H14.375C14.7206 2.5 15 2.22 15 1.875C15 1.53 14.7206 1.25 14.375 1.25H3.125C1.39938 1.25 0 2.64938 0 4.375V10.625C0 12.3506 1.39938 13.75 3.125 13.75H13.125C14.1606 13.75 15 12.9106 15 11.875V5.625C15 4.58938 14.1606 3.75 13.125 3.75ZM13.75 11.875C13.75 12.2194 13.47 12.5 13.125 12.5H3.125C2.09125 12.5 1.25 11.6588 1.25 10.625V4.37375C1.78375 4.77313 2.44 5 3.125 5H13.125C13.47 5 13.75 5.28063 13.75 5.625V11.875ZM12.5 8.75C12.5 9.095 12.22 9.375 11.875 9.375C11.53 9.375 11.25 9.095 11.25 8.75C11.25 8.405 11.53 8.125 11.875 8.125C12.22 8.125 12.5 8.405 12.5 8.75Z" fill="white" fill-opacity="0.75"/>
</g>
<defs>
<clipPath id="clip0_1850_51">
<rect width="15" height="15" fill="white"/>
</clipPath>
</defs>
</svg>
